HIERARCHY
ROOT Hips
{
	OFFSET -0.001795 -0.223333 0.028219
	CHANNELS 6 Xposition Yposition Zposition Zrotation Yrotation Xrotation 
	JOINT LeftUpLeg
	{
		OFFSET 0.069520 -0.091406 -0.006815
		CHANNELS 3 Zrotation Yrotation Xrotation
		JOINT LeftLeg
		{
			OFFSET 0.034277 -0.375199 -0.004496
			CHANNELS 3 Zrotation Yrotation Xrotation
			JOINT LeftFoot
			{
				OFFSET -0.013596 -0.397961 -0.043693
				CHANNELS 3 Zrotation Yrotation Xrotation
				JOINT LeftToe
				{
					OFFSET 0.026358 -0.055791 0.119288
					CHANNELS 3 Zrotation Yrotation Xrotation
					End Site
					{
						OFFSET 0.000000 0.000000 0.000000
					}
				}
			}
		}
	}
	JOINT RightUpLeg
	{
		OFFSET -0.067670 -0.090522 -0.004320
		CHANNELS 3 Zrotation Yrotation Xrotation
		JOINT RightLeg
		{
			OFFSET -0.038290 -0.382569 -0.008850
			CHANNELS 3 Zrotation Yrotation Xrotation
			JOINT RightFoot
			{
				OFFSET 0.015774 -0.398415 -0.042312
				CHANNELS 3 Zrotation Yrotation Xrotation
				JOINT RightToe
				{
					OFFSET -0.025372 -0.048144 0.123348
					CHANNELS 3 Zrotation Yrotation Xrotation
					End Site
					{
						OFFSET 0.000000 0.000000 0.000000
					}
				}
			}
		}
	}
	JOINT Spine
	{
		OFFSET -0.002533 0.108963 -0.026696
		CHANNELS 3 Zrotation Yrotation Xrotation
		JOINT Spine1
		{
			OFFSET 0.005487 0.135180 0.001092
			CHANNELS 3 Zrotation Yrotation Xrotation
			JOINT Spine2
			{
				OFFSET 0.001457 0.052922 0.025425
				CHANNELS 3 Zrotation Yrotation Xrotation
				JOINT Neck
				{
					OFFSET -0.002778 0.213870 -0.042857
					CHANNELS 3 Zrotation Yrotation Xrotation
					JOINT Head
					{
						OFFSET 0.005152 0.064970 0.051349
						CHANNELS 3 Zrotation Yrotation Xrotation
						End Site
						{
							OFFSET 0.000000 0.000000 0.000000
						}
					}
				}
				JOINT LeftShoulder
				{
					OFFSET 0.078845 0.121749 -0.034090
					CHANNELS 3 Zrotation Yrotation Xrotation
					JOINT LeftArm
					{
						OFFSET 0.090977 0.030469 -0.008868
						CHANNELS 3 Zrotation Yrotation Xrotation
						JOINT LeftForeArm
						{
							OFFSET 0.259612 -0.012772 -0.027456
							CHANNELS 3 Zrotation Yrotation Xrotation
							JOINT LeftHand
							{
								OFFSET 0.249234 0.008986 -0.001171
								CHANNELS 3 Zrotation Yrotation Xrotation
								End Site
								{
									OFFSET 0.000000 0.000000 0.000000
								}
							}
						}
					}
				}
				JOINT RightShoulder
				{
					OFFSET -0.081759 0.118833 -0.038615
					CHANNELS 3 Zrotation Yrotation Xrotation
					JOINT RightArm
					{
						OFFSET -0.096012 0.032551 -0.009143
						CHANNELS 3 Zrotation Yrotation Xrotation
						JOINT RightForeArm
						{
							OFFSET -0.253742 -0.013329 -0.021401
							CHANNELS 3 Zrotation Yrotation Xrotation
							JOINT RightHand
							{
								OFFSET -0.255298 0.007772 -0.005559
								CHANNELS 3 Zrotation Yrotation Xrotation
								End Site
								{
									OFFSET 0.000000 0.000000 0.000000
								}
							}
						}
					}
				}
			}
		}
	}
}
MOTION
Frames: 11
Frame Time: 0.050000
0.000000 0.948979 0.000000 -4.279620 -0.496160 -1.687505 -1.360891 1.425868 13.672654 3.859705 -1.359784 13.484075 -3.230047 1.388938 17.369280 0.000000 0.000000 0.000000 2.386833 4.063820 -32.847503 5.397967 -1.124946 62.976394 -2.259003 -10.215426 16.281151 0.000000 0.000000 0.000000 3.824329 -1.181730 15.492028 3.409006 -2.284145 9.589370 1.358103 -8.676732 -12.598300 -0.237142 0.448555 3.949690 0.000000 0.000000 0.000000 -22.236804 -6.216375 3.271725 -32.363981 -5.723921 -1.939975 -126.411034 -73.503638 119.602075 0.000000 0.000000 0.000000 21.785666 -1.838369 -6.111441 35.426387 -25.543768 -8.607888 54.583651 41.172384 20.454131 0.000000 0.000000 0.000000 
-0.005403 0.986316 0.010262 -5.572536 -1.044463 0.680791 0.234606 1.628570 17.879986 3.962686 -1.232633 11.545605 -5.236161 1.566650 26.036505 0.000000 0.000000 0.000000 5.106733 5.020783 -33.931512 3.899619 -0.019419 43.841259 -0.940912 -9.849168 24.261911 0.000000 0.000000 0.000000 5.580351 -1.171503 12.247081 4.714750 -3.164853 11.760945 2.012922 -9.624885 -15.411744 -1.562915 1.661694 6.207770 0.000000 0.000000 0.000000 -18.153880 -4.714927 2.485714 -35.639130 -7.317121 -1.416729 -134.954281 -70.893951 128.798438 0.000000 0.000000 0.000000 15.155028 -3.546576 -5.393032 38.215663 -27.421760 -10.195794 56.813165 38.578607 19.150020 0.000000 0.000000 0.000000 
-0.010250 1.009168 0.020886 -4.850174 -2.414813 2.180719 -0.617386 1.713039 16.608503 3.730702 -1.592020 18.571535 -4.749750 2.634706 28.211045 0.000000 0.000000 0.000000 7.799416 4.851299 -28.496452 -0.964850 1.292673 21.498293 0.219031 -12.878039 49.294860 0.000000 0.000000 0.000000 5.453192 -0.949595 9.822012 6.676923 -3.853532 7.678907 -1.153972 -8.833120 -10.989127 -1.786950 1.706723 6.837799 0.000000 0.000000 0.000000 -19.002886 -4.563103 2.371874 -34.475982 -4.319495 -2.498406 -131.077051 -65.480052 118.751638 0.000000 0.000000 0.000000 13.868167 -4.081217 -5.035585 40.425522 -28.227963 -11.498211 55.430139 36.679945 17.636538 0.000000 0.000000 0.000000 
-0.013429 1.002554 0.030141 -4.560565 -1.858138 1.599866 -0.315179 1.365313 13.926081 1.211242 -1.529321 34.348129 -1.704188 5.840178 25.508609 0.000000 0.000000 0.000000 8.815972 4.312536 -24.679392 -0.372095 0.819429 16.446122 -9.270330 -20.675797 78.755029 0.000000 0.000000 0.000000 5.399833 -0.973804 10.225140 7.330620 -4.232796 7.440692 -2.609189 -6.437561 -11.043348 -1.710987 1.357663 5.644278 0.000000 0.000000 0.000000 -17.992062 -2.990407 0.688094 -34.515988 -2.638997 -2.622957 -124.819398 -58.984035 101.972480 0.000000 0.000000 0.000000 16.046841 -3.466113 -4.788829 40.975035 -27.532542 -11.318960 54.242501 38.065436 18.763009 0.000000 0.000000 0.000000 
-0.014648 0.966738 0.036955 -4.065481 -1.386032 -0.921227 0.710735 0.901170 10.453225 -1.578436 -0.695775 53.108839 0.719090 7.413945 18.200824 0.000000 0.000000 0.000000 10.054607 3.699848 -20.261956 0.285067 0.947863 23.477623 -19.676364 -25.615102 80.878658 0.000000 0.000000 0.000000 4.542370 -0.970821 11.721404 5.888955 -3.717674 9.857200 -1.284462 -2.819077 -11.456655 0.100793 -0.257688 4.158931 0.000000 0.000000 0.000000 -16.854798 -1.875756 -0.622670 -33.931714 0.546402 -3.110044 -117.263638 -56.642184 88.006018 0.000000 0.000000 0.000000 18.327307 -2.084086 -3.917406 40.401882 -23.039880 -9.627645 49.624797 43.587464 20.733240 0.000000 0.000000 0.000000 
-0.015296 0.922575 0.037134 -3.567410 -2.401708 -3.479991 1.436870 0.384241 4.755910 -3.610586 1.224183 68.854322 4.550505 11.710499 10.541449 0.000000 0.000000 0.000000 10.552326 3.087688 -16.470109 1.053485 1.327202 35.226473 -16.653521 -27.380923 50.900105 0.000000 0.000000 0.000000 4.290219 -1.112977 14.642887 4.535574 -3.022399 11.578854 -1.471067 1.770006 -11.468501 -0.872903 0.543433 0.316050 0.000000 0.000000 0.000000 -18.259965 -1.136934 -2.087800 -31.886031 4.544147 -3.601888 -112.292906 -52.898418 75.692570 0.000000 0.000000 0.000000 22.208374 -0.079024 -2.340480 39.057432 -14.642090 -6.888705 41.400234 49.358333 20.739353 0.000000 0.000000 0.000000 
-0.014656 0.902121 0.031319 -2.973015 -3.546802 -4.988008 2.341683 -0.413039 -6.067014 -5.625090 4.211559 78.045900 8.614115 17.716154 0.077826 0.000000 0.000000 0.000000 10.191696 1.406512 -8.073003 0.356761 1.824574 35.447205 -6.360080 -15.528640 -0.321496 0.000000 0.000000 0.000000 2.975668 -1.078376 17.585237 2.685563 -1.732403 9.395684 -0.327669 8.212042 -8.985562 -0.373604 0.145741 -0.356004 0.000000 0.000000 0.000000 -20.573221 -1.002735 -3.770165 -29.943300 9.465550 -4.263480 -105.401667 -49.930080 63.073438 0.000000 0.000000 0.000000 21.896204 2.129935 0.596986 39.982568 -6.480498 -5.245683 39.423667 56.717608 24.696069 0.000000 0.000000 0.000000 
-0.013745 0.918286 0.027334 -1.135554 -4.393183 -4.349694 1.365713 -1.438817 -19.706836 -6.506174 5.649416 76.780504 7.719453 16.284833 4.502143 0.000000 0.000000 0.000000 7.856877 -0.317353 1.099389 -2.093528 2.441007 29.198059 -4.385613 -2.298080 -17.456244 0.000000 0.000000 0.000000 1.300606 -0.789976 17.299178 0.188592 -0.190098 9.878553 -1.313659 13.137178 -10.636011 1.316338 -1.260238 -0.153056 0.000000 0.000000 0.000000 -18.108192 0.326402 -4.927261 -27.798753 13.260873 -4.502449 -103.445833 -47.009390 56.134768 0.000000 0.000000 0.000000 20.542066 3.035854 2.360588 41.726639 -0.079561 -3.639646 41.438215 63.970359 31.368445 0.000000 0.000000 0.000000 
-0.012683 0.956727 0.029131 0.038412 -6.102322 -2.712588 0.223788 -2.051007 -26.975428 -3.787527 2.829868 60.750359 4.725136 11.592585 9.925289 0.000000 0.000000 0.000000 4.153728 -1.416411 10.548624 -3.247069 1.905982 18.818783 -1.624996 5.892987 -13.582497 0.000000 0.000000 0.000000 -0.297772 -0.468815 15.507675 -1.400227 0.807783 7.720768 -1.662743 18.145870 -9.395004 4.313592 -3.759965 0.676578 0.000000 0.000000 0.000000 -18.034829 1.175808 -6.117763 -25.668832 16.924672 -4.787440 -105.563583 -45.302442 54.987510 0.000000 0.000000 0.000000 18.060129 2.644883 3.019814 44.493181 3.226928 -2.882547 49.750409 70.633454 43.856284 0.000000 0.000000 0.000000 
-0.012083 0.996345 0.035966 0.631585 -5.991182 -1.634958 -1.831202 -2.454169 -25.823358 -0.720979 -0.070461 34.428279 1.620810 8.007005 18.362110 0.000000 0.000000 0.000000 2.397105 -1.766732 16.074664 -3.291371 1.542630 15.042811 1.493720 6.030875 -2.933578 0.000000 0.000000 0.000000 -2.287061 -0.178426 13.546993 -2.147325 1.203753 6.625995 -0.571635 20.184787 -10.386263 5.573530 -5.854634 4.083798 0.000000 0.000000 0.000000 -17.444439 1.460070 -6.437307 -25.253380 21.152561 -5.485754 -107.344102 -41.706612 51.482977 0.000000 0.000000 0.000000 18.080229 2.186573 3.119052 45.146334 2.897567 -2.972098 61.180852 71.561581 54.732619 0.000000 0.000000 0.000000 
-0.011694 1.017466 0.044044 -0.449743 -5.052638 0.403246 -2.032396 -2.332814 -23.500801 1.614176 -0.677928 12.226189 -3.636245 4.878820 33.414541 0.000000 0.000000 0.000000 3.011057 -2.068743 17.342366 -3.082106 1.793563 18.642953 2.961731 1.468785 9.220343 0.000000 0.000000 0.000000 -1.380306 -0.248088 10.335577 -1.850011 1.086752 9.921112 -3.011111 19.387209 -13.599422 8.108079 -7.787176 3.597365 0.000000 0.000000 0.000000 -16.026333 1.451679 -6.050120 -26.444343 23.964554 -6.403174 -110.062437 -43.676402 56.317565 0.000000 0.000000 0.000000 18.965356 2.245112 3.362841 45.379907 0.641029 -3.602080 70.356708 69.507341 60.806737 0.000000 0.000000 0.000000 
